<svg version="1.2" xmlns="http://www.w3.org/2000/svg" viewBox="0 0 259 97" width="259" height="97">
	<title>&lt;Path&gt;</title>
	<style>
		.s0 { fill: #e90623 } 
		.s1 { fill: #ffffff } 
	</style>
	<path id="&lt;Compound Path&gt;" fill-rule="evenodd" class="s0" d="m254.1 74.3c2.2 0 4 1.8 4 4 0 2.2-1.8 4-4 4-2.2 0-3.9-1.8-3.9-4 0-2.2 1.7-4 3.9-4zm0 7.3c1.9 0 3.3-1.5 3.3-3.3 0-1.8-1.4-3.3-3.3-3.3-1.8 0-3.2 1.5-3.2 3.3 0 1.8 1.4 3.3 3.2 3.3zm-1.5-5.6h1.8c1.1 0 1.6 0.5 1.6 1.3 0 0.8-0.5 1.2-1.1 1.3l1.2 1.9h-0.9l-1.1-1.8h-0.7v1.8h-0.8zm0.8 2h0.7c0.5 0 1 0 1-0.6 0-0.6-0.5-0.7-1-0.7h-0.7z"/>
	<path id="&lt;Path&gt;" class="s0" d="m0.6 10.6c0 0 37.6-10.5 122.6-10.5 84.9 0 122.6 10.5 122.6 10.5 0.1 0 0.3 0.3 0.3 0.4v71.9c0 0.1-0.2 0.3-0.3 0.3 0 0-37.6 12.9-122.6 12.9-85 0-122.7-12.9-122.7-12.9-0.1 0-0.2-0.2-0.2-0.3v-71.9c0-0.1 0.1-0.4 0.3-0.4z"/>
	<path id="&lt;Path&gt;" class="s1" d="m17.5 38.7c0-6.4 3.8-10.2 12.5-10.2 3.3 0 6.7 0.4 9.6 1.2l-0.8 5.7c-2.8-0.5-6.1-0.9-8.6-0.9-4.5 0-6 1.6-6 5.3v13.5c0 3.8 1.5 5.4 6 5.4 2.5 0 5.8-0.4 8.6-0.9l0.8 5.7c-2.9 0.7-6.3 1.2-9.6 1.2-8.7 0-12.5-3.8-12.5-10.2z"/>
	<path id="&lt;Compound Path&gt;" fill-rule="evenodd" class="s1" d="m65.8 64.1l-8.1-11.6h-6.3v11.6h-6.6v-35.1h14.4c8.1 0 11.1 3.4 11.1 9.5v4.6c0 4.2-1.5 7.2-5.2 8.5l8.7 12.5zm-6.9-29.2h-7.5v11.9h7.5c3.6 0 4.8-1.3 4.8-4.3v-3.4c0-3-1.3-4.2-4.8-4.2z"/>
	<path id="&lt;Compound Path&gt;" fill-rule="evenodd" class="s1" d="m102.8 53.9c0 5.8-3.3 10.8-13.3 10.8-9.9 0-13.2-5-13.2-10.8v-14.6c0-5.8 3.3-10.8 13.2-10.8 10 0 13.3 5 13.3 10.8zm-19.9-0.4c0 3.4 1.7 5.4 6.6 5.4 5 0 6.7-2 6.7-5.4v-13.8c0-3.3-1.7-5.3-6.7-5.3-4.9 0-6.6 2-6.6 5.3z"/>
	<path id="&lt;Compound Path&gt;" fill-rule="evenodd" class="s1" d="m108.6 29h13.7c8.1 0 11.2 3.4 11.2 9.5v4.8c0 6.1-3.3 9.5-11.5 9.5h-6.7v11.3h-6.7zm13.4 5.9h-6.7v12h6.7c3.7 0 4.8-1.4 4.8-4.3v-3.5c0-2.9-1.2-4.2-4.8-4.2z"/>
	<path id="&lt;Path&gt;" class="s1" d="m144.9 58.3h14.5v5.8h-21.1v-35.1h6.6z"/>
	<path id="&lt;Compound Path&gt;" fill-rule="evenodd" class="s1" d="m185.2 56.9h-13l-2.2 7.2h-6.9l11-35.1h9.3l11.1 35.1h-7zm-11.4-5.7h9.7l-4.8-16.6z"/>
	<path id="&lt;Path&gt;" class="s1" d="m205.7 37.5v26.6h-6.5v-35.1h8.9l13.3 26.7v-26.7h6.5v35.1h-8.8z"/>
</svg>